<svg width="30" height="23" viewBox="0 0 30 23" fill="none" xmlns="http://www.w3.org/2000/svg">
<path d="M28.4115 2.69131C27.3615 1.36099 25.4227 0.818359 21.7202 0.818359H8.27965C4.49229 0.818359 2.52067 1.396 1.47453 2.81229C0.454559 4.1932 0.454559 6.22786 0.454559 9.04386V14.4111C0.454559 19.8667 1.66474 22.6365 8.27965 22.6365H21.7202C24.9311 22.6365 26.7103 22.1579 27.8614 20.9837C29.0419 19.7798 29.5455 17.8143 29.5455 14.4111V9.04386C29.5455 6.07414 29.4666 4.02749 28.4115 2.69131ZM19.1311 12.4685L13.0277 15.8678C12.8913 15.9439 12.7421 15.9816 12.5931 15.9816C12.4243 15.9816 12.256 15.9331 12.1069 15.837C11.8261 15.6556 11.6546 15.3314 11.6546 14.9814V8.20458C11.6546 7.85536 11.8256 7.53135 12.1058 7.34992C12.3862 7.16853 12.7348 7.15612 13.0256 7.31712L19.1289 10.6946C19.4394 10.8664 19.6343 11.208 19.6348 11.5807C19.6352 11.9538 19.4412 12.2959 19.1311 12.4685Z" fill="white"/>
</svg>
