<svg width="30" height="18" viewBox="0 0 30 18" fill="none" xmlns="http://www.w3.org/2000/svg">
<path d="M29.3912 16.0358C29.3559 15.956 29.3231 15.8897 29.2924 15.8366C28.7878 14.8807 27.8233 13.7073 26.3995 12.3162L26.3695 12.2843L26.3545 12.2688L26.3391 12.2527H26.3239C25.6777 11.605 25.2685 11.1694 25.0972 10.9465C24.7838 10.5217 24.7134 10.0917 24.8848 9.656C25.0059 9.3269 25.4607 8.63176 26.248 7.56962C26.6621 7.0068 26.9901 6.55569 27.2324 6.21582C28.9795 3.77335 29.7369 2.21258 29.5045 1.53289L29.4143 1.37405C29.3536 1.27843 29.1971 1.19096 28.9448 1.11118C28.6923 1.03157 28.3691 1.0184 27.9753 1.07146L23.6133 1.10314C23.5426 1.07681 23.4416 1.07927 23.3102 1.11118C23.179 1.1431 23.1132 1.1591 23.1132 1.1591L23.0373 1.19899L22.9771 1.24691C22.9266 1.27861 22.871 1.33434 22.8103 1.41401C22.7499 1.49339 22.6997 1.58656 22.6592 1.69273C22.1843 2.97762 21.6445 4.17224 21.0384 5.27654C20.6648 5.93502 20.3217 6.50569 20.0084 6.98882C19.6953 7.47195 19.4327 7.82778 19.2208 8.05599C19.0086 8.28419 18.8171 8.46721 18.6451 8.60536C18.4735 8.74367 18.3425 8.80198 18.2516 8.7806C18.1606 8.75938 18.075 8.73817 17.9938 8.71695C17.8526 8.62123 17.7389 8.49118 17.6533 8.32662C17.5672 8.16207 17.5093 7.95492 17.4791 7.70534C17.4488 7.4556 17.4311 7.24084 17.426 7.06025C17.4212 6.87999 17.4234 6.62482 17.4337 6.29565C17.4441 5.96632 17.4488 5.74349 17.4488 5.62668C17.4488 5.22309 17.4563 4.78508 17.4712 4.31256C17.4866 3.84001 17.499 3.46562 17.5093 3.18978C17.5196 2.91367 17.5244 2.62158 17.5244 2.31362C17.5244 2.00565 17.5065 1.76414 17.4712 1.58885C17.4366 1.41378 17.3832 1.24385 17.3128 1.07911C17.2419 0.914523 17.1383 0.787205 17.0023 0.696831C16.866 0.60657 16.6964 0.534934 16.4948 0.481714C15.9596 0.354331 15.278 0.285433 14.4499 0.274728C12.5718 0.253527 11.3651 0.381055 10.8299 0.657167C10.6179 0.773827 10.426 0.933213 10.2544 1.13484C10.0726 1.36853 10.0473 1.49608 10.1785 1.51705C10.7845 1.61251 11.2134 1.84086 11.4659 2.20187L11.5569 2.39318C11.6276 2.53119 11.6983 2.77555 11.769 3.12591C11.8396 3.47626 11.8852 3.86383 11.9052 4.28838C11.9557 5.06369 11.9557 5.72737 11.9052 6.27947C11.8547 6.83172 11.807 7.26173 11.7614 7.56978C11.7158 7.87767 11.6477 8.12725 11.5569 8.31836C11.4659 8.50948 11.4054 8.62625 11.375 8.66868C11.3447 8.71112 11.3195 8.73784 11.2994 8.74821C11.1682 8.80117 11.0317 8.82806 10.8904 8.82806C10.7489 8.82806 10.5773 8.75371 10.3754 8.60487C10.1736 8.45619 9.96409 8.25196 9.74694 7.99169C9.5298 7.73142 9.28494 7.36781 9.01219 6.90056C8.73967 6.43339 8.4569 5.88124 8.16407 5.24413L7.92178 4.78207C7.77033 4.48483 7.56343 4.05202 7.30089 3.48402C7.03818 2.91581 6.80598 2.36616 6.60412 1.83521C6.52342 1.61222 6.40219 1.44245 6.24067 1.32563L6.16487 1.2777C6.11446 1.23532 6.03356 1.19029 5.92258 1.1423C5.81144 1.09438 5.69546 1.06003 5.57419 1.03888L1.42408 1.07057C1 1.07057 0.712249 1.1716 0.560734 1.37339L0.5001 1.46885C0.469807 1.52201 0.454529 1.60692 0.454529 1.72381C0.454529 1.84063 0.484822 1.98402 0.545456 2.15377C1.1513 3.65118 1.81014 5.09529 2.52197 6.48632C3.23381 7.87734 3.85237 8.99795 4.3773 9.84695C4.90235 10.6966 5.43754 11.4985 5.98284 12.2521C6.52814 13.0062 6.8891 13.4893 7.06572 13.7016C7.24253 13.9143 7.38141 14.0733 7.48236 14.1794L7.8611 14.5616C8.10344 14.8166 8.45929 15.1219 8.92885 15.4775C9.39851 15.8334 9.91846 16.1837 10.489 16.5291C11.0596 16.874 11.7234 17.1553 12.4808 17.373C13.2381 17.5908 13.9752 17.6783 14.6921 17.6361H16.4341C16.7873 17.6039 17.055 17.4873 17.2368 17.2857L17.2971 17.2058C17.3377 17.1423 17.3756 17.044 17.4106 16.9114C17.446 16.7787 17.4635 16.6325 17.4635 16.4734C17.4532 16.0169 17.4863 15.6053 17.562 15.2391C17.6374 14.8729 17.7234 14.5968 17.8196 14.4109C17.9159 14.2251 18.0243 14.0683 18.1452 13.9412C18.2662 13.8139 18.3525 13.7368 18.4032 13.7102C18.4534 13.6835 18.4936 13.6653 18.5239 13.6543C18.7662 13.5695 19.0514 13.6517 19.3799 13.9015C19.7081 14.1511 20.0161 14.4591 20.304 14.8253C20.5918 15.1918 20.9376 15.6032 21.3412 16.0596C21.7455 16.5163 22.0988 16.8558 22.4014 17.0792L22.7044 17.2703C22.9067 17.3977 23.1692 17.5147 23.4924 17.6208C23.8151 17.727 24.0977 17.7536 24.3402 17.7004L28.2176 17.6368C28.6012 17.6368 28.8996 17.5701 29.1112 17.4376C29.3234 17.3048 29.4494 17.1585 29.4899 16.9996C29.5305 16.8404 29.5327 16.6597 29.4976 16.4577C29.4617 16.2562 29.4263 16.1153 29.3912 16.0358Z" fill="white"/>
</svg>
