<svg width="15" height="26" viewBox="0 0 15 26" fill="none" xmlns="http://www.w3.org/2000/svg">
<path d="M13.5927 0.914329L10.386 0.90918C6.78356 0.90918 4.45553 3.29772 4.45553 6.99459V9.80038H1.23147C0.952865 9.80038 0.727264 10.0262 0.727264 10.3048V14.3701C0.727264 14.6488 0.953126 14.8743 1.23147 14.8743H4.45553V25.1323C4.45553 25.4109 4.68114 25.6365 4.95973 25.6365H9.16625C9.44479 25.6365 9.67039 25.4106 9.67039 25.1323V14.8743H13.4401C13.7187 14.8743 13.9443 14.6488 13.9443 14.3701L13.9459 10.3048C13.9459 10.1711 13.8926 10.043 13.7982 9.94829C13.7038 9.85363 13.5751 9.80038 13.4414 9.80038H9.67039V7.42188C9.67039 6.27868 9.94283 5.69833 11.432 5.69833L13.5921 5.69756C13.8705 5.69756 14.0961 5.4717 14.0961 5.19335V1.41853C14.0961 1.14044 13.8707 0.914838 13.5927 0.914329Z" fill="white"/>
</svg>
